<svg width="22" height="23" viewBox="0 0 22 23" fill="none" xmlns="http://www.w3.org/2000/svg">
<circle cx="11" cy="11.954" r="11" fill="#C80000"/>
<path d="M7.86167 11.2481C8.70167 12.899 10.055 14.2465 11.7058 15.0923L12.9892 13.809C13.1467 13.6515 13.38 13.599 13.5842 13.669C14.2375 13.8848 14.9433 14.0015 15.6667 14.0015C15.9875 14.0015 16.25 14.264 16.25 14.5848V16.6206C16.25 16.9415 15.9875 17.204 15.6667 17.204C10.1892 17.204 5.75 12.7648 5.75 7.28731C5.75 6.96648 6.0125 6.70398 6.33333 6.70398H8.375C8.69583 6.70398 8.95833 6.96648 8.95833 7.28731C8.95833 8.01648 9.075 8.71648 9.29083 9.36981C9.355 9.57398 9.30833 9.80148 9.145 9.96481L7.86167 11.2481Z" fill="black"/>
</svg>
