<svg width="22" height="23" viewBox="0 0 22 23" fill="none" xmlns="http://www.w3.org/2000/svg">
<circle cx="11" cy="11.954" r="11" fill="#C80000"/>
<path d="M11 11.654C10.6211 11.654 10.2578 11.4959 9.98985 11.2146C9.72194 10.9333 9.57143 10.5518 9.57143 10.154C9.57143 9.75615 9.72194 9.37462 9.98985 9.09332C10.2578 8.81201 10.6211 8.65398 11 8.65398C11.3789 8.65398 11.7422 8.81201 12.0102 9.09332C12.2781 9.37462 12.4286 9.75615 12.4286 10.154C12.4286 10.351 12.3916 10.546 12.3198 10.728C12.248 10.91 12.1428 11.0754 12.0102 11.2146C11.8775 11.3539 11.72 11.4644 11.5467 11.5398C11.3734 11.6152 11.1876 11.654 11 11.654ZM11 5.95398C9.93913 5.95398 8.92172 6.39648 8.17157 7.18413C7.42143 7.97178 7 9.04007 7 10.154C7 13.304 11 17.954 11 17.954C11 17.954 15 13.304 15 10.154C15 9.04007 14.5786 7.97178 13.8284 7.18413C13.0783 6.39648 12.0609 5.95398 11 5.95398Z" fill="black"/>
</svg>
