<svg width="200" height="36" viewBox="0 0 200 36" fill="none" xmlns="http://www.w3.org/2000/svg">
<rect x="0.0820312" y="29.8398" width="94.9171" height="6.13688" fill="#D9D9D9" fill-opacity="0.5"/>
<path d="M99.499 29.8398H192.575L197.689 35.9767H99.499V29.8398Z" fill="#C80000"/>
<path d="M200 17.4025C200 18.7526 199.803 20.0168 199.41 21.1951C199.042 22.3733 198.465 23.4043 197.68 24.288C196.919 25.1718 195.961 25.8714 194.808 26.3869C193.654 26.8778 192.316 27.1233 190.794 27.1233C189.248 27.1233 187.898 26.8778 186.744 26.3869C185.615 25.8714 184.657 25.1718 183.872 24.288C183.111 23.4043 182.534 22.3733 182.141 21.1951C181.773 20.0168 181.589 18.7526 181.589 17.4025C181.589 16.0523 181.773 14.7881 182.141 13.6099C182.534 12.4316 183.111 11.4006 183.872 10.5169C184.657 9.63317 185.615 8.94584 186.744 8.45489C187.898 7.93939 189.248 7.68164 190.794 7.68164C192.316 7.68164 193.654 7.93939 194.808 8.45489C195.961 8.94584 196.919 9.63317 197.68 10.5169C198.465 11.4006 199.042 12.4316 199.41 13.6099C199.803 14.7881 200 16.0523 200 17.4025ZM188.254 17.4025C188.254 20.4464 188.462 22.7661 188.879 24.3617C189.297 25.9573 189.935 26.7551 190.794 26.7551C191.653 26.7551 192.292 25.9573 192.709 24.3617C193.126 22.7661 193.335 20.4464 193.335 17.4025C193.335 14.3586 193.126 12.0388 192.709 10.4432C192.292 8.84765 191.653 8.04985 190.794 8.04985C189.935 8.04985 189.297 8.84765 188.879 10.4432C188.462 12.0388 188.254 14.3586 188.254 17.4025Z" fill="#C80000"/>
<path d="M163.17 26.976C163.464 26.9269 163.747 26.8164 164.017 26.6446C164.238 26.4973 164.434 26.2887 164.606 26.0186C164.802 25.7241 164.901 25.3313 164.901 24.8404V11.9897C164.901 11.4988 164.802 11.1183 164.606 10.8483C164.434 10.5537 164.238 10.3328 164.017 10.1855C163.747 10.0137 163.464 9.90319 163.17 9.8541C164.52 9.65772 165.784 9.43679 166.963 9.19131C167.453 9.09312 167.944 8.98266 168.435 8.85992C168.926 8.73718 169.38 8.61445 169.798 8.49171C170.24 8.36897 170.62 8.24623 170.939 8.1235C171.258 7.97621 171.492 7.82893 171.639 7.68164V12.3948C171.884 11.4865 172.228 10.7378 172.67 10.1487C173.136 9.55953 173.627 9.09312 174.143 8.74946C174.683 8.40579 175.223 8.17259 175.763 8.04985C176.327 7.90257 176.843 7.82893 177.309 7.82893C178.267 7.82893 179.028 8.11122 179.592 8.67582C180.181 9.24041 180.476 9.91547 180.476 10.701C180.476 11.462 180.23 12.137 179.739 12.7262C179.249 13.3153 178.438 13.6099 177.309 13.6099C176.818 13.6099 176.34 13.4871 175.873 13.2417C175.407 12.9962 174.953 12.7507 174.511 12.5052C174.094 12.2352 173.713 12.0143 173.369 11.8424C173.026 11.6706 172.719 11.6706 172.449 11.8424C172.203 11.9897 172.007 12.3579 171.86 12.9471C171.712 13.5117 171.639 14.4077 171.639 15.635V24.8772C171.639 25.3681 171.725 25.7486 171.897 26.0186C172.093 26.2887 172.289 26.4973 172.486 26.6446C172.731 26.8164 173.013 26.9269 173.333 26.976H163.17Z" fill="#C80000"/>
<path d="M159.768 7.93972H162.419V8.23429H159.768L159.731 22.1896C159.731 22.9014 159.817 23.4783 159.989 23.9202C160.186 24.3375 160.468 24.5461 160.836 24.5461C161.131 24.5461 161.364 24.4357 161.536 24.2147C161.634 24.1165 161.708 24.0061 161.757 23.8833L162.051 24.0674C161.781 24.6566 161.425 25.1721 160.983 25.6139C160.615 26.0067 160.124 26.3626 159.511 26.6818C158.897 26.9763 158.16 27.1236 157.301 27.1236C156.565 27.1236 155.927 26.9641 155.387 26.6449C154.847 26.3013 154.392 25.8717 154.024 25.3562C153.68 24.8161 153.423 24.2025 153.251 23.5151C153.079 22.8278 152.993 22.1159 152.993 21.3795V8.23429H152.956H150.747V7.93972H151.299C152.625 7.93972 153.803 7.64515 154.834 7.05601C155.89 6.46687 156.786 5.81636 157.522 5.10448C158.381 4.26987 159.13 3.31251 159.768 2.23242V7.93972Z" fill="#C80000"/>
<path d="M134.845 12.8734C134.845 11.1551 135.496 9.86637 136.797 9.00721C138.098 8.1235 139.791 7.68164 141.878 7.68164C143.081 7.68164 144.136 7.74301 145.045 7.86575C145.953 7.98849 146.726 8.11122 147.364 8.23396C148.101 8.38125 148.739 8.55308 149.279 8.74946L149.169 14.3095H149.058C148.764 13.1803 148.334 12.1616 147.769 11.2533C147.524 10.8605 147.242 10.4801 146.923 10.1118C146.628 9.74363 146.272 9.41224 145.855 9.11767C145.462 8.8231 145.02 8.5899 144.529 8.41807C144.038 8.24623 143.498 8.16032 142.909 8.16032C142.492 8.16032 142.074 8.29533 141.657 8.56535C141.264 8.81083 141.068 9.30178 141.068 10.0382C141.068 10.8483 141.289 11.5356 141.731 12.1002C142.197 12.6648 142.774 13.1803 143.461 13.6467C144.173 14.1131 144.922 14.5672 145.707 15.0091C146.517 15.4509 147.266 15.9542 147.954 16.5188C148.665 17.0833 149.242 17.7461 149.684 18.5071C150.151 19.2435 150.384 20.1641 150.384 21.2687C150.384 23.257 149.647 24.7422 148.174 25.7241C146.726 26.706 144.738 27.1969 142.209 27.1969C141.105 27.1969 140.086 27.111 139.153 26.9392C138.245 26.7428 137.472 26.5341 136.833 26.3132C136.048 26.0432 135.361 25.7486 134.771 25.4295V19.4645H134.882C135.373 20.8391 135.962 22.0542 136.649 23.1098C136.944 23.5516 137.275 23.9935 137.644 24.4353C138.012 24.8772 138.429 25.2699 138.895 25.6136C139.362 25.9327 139.865 26.2028 140.405 26.4237C140.945 26.6201 141.534 26.7182 142.173 26.7182C142.369 26.7182 142.578 26.6937 142.799 26.6446C143.019 26.571 143.228 26.4605 143.424 26.3132C143.621 26.1659 143.78 25.9818 143.903 25.7609C144.05 25.5154 144.124 25.2208 144.124 24.8772C144.124 24.0917 143.891 23.4043 143.424 22.8152C142.983 22.2015 142.418 21.6369 141.731 21.1214C141.043 20.5814 140.295 20.0659 139.485 19.5749C138.675 19.0594 137.926 18.4948 137.239 17.8811C136.551 17.2429 135.974 16.531 135.508 15.7455C135.066 14.9354 134.845 13.9781 134.845 12.8734Z" fill="#C80000"/>
<path d="M123.508 26.9761C123.802 26.927 124.085 26.8166 124.355 26.6447C124.551 26.4975 124.735 26.2888 124.907 26.0188C125.103 25.7242 125.202 25.3314 125.202 24.8405V11.9899C125.202 11.4989 125.103 11.1184 124.907 10.8484C124.735 10.5538 124.551 10.3329 124.355 10.1856C124.085 10.0138 123.802 9.90333 123.508 9.85423C124.858 9.65785 126.122 9.43693 127.3 9.19145C127.791 9.09326 128.282 8.9828 128.773 8.86006C129.264 8.73732 129.718 8.61458 130.136 8.49185C130.578 8.36911 130.958 8.24637 131.277 8.12363C131.596 7.97635 131.829 7.82906 131.977 7.68178V24.8773C131.977 25.3683 132.063 25.7488 132.234 26.0188C132.406 26.2888 132.603 26.4975 132.824 26.6447C133.069 26.8166 133.351 26.927 133.67 26.9761H123.508ZM128.368 7.68178C127.288 7.68178 126.38 7.31356 125.643 6.57714C124.907 5.84071 124.539 4.93245 124.539 3.85236C124.539 3.33687 124.637 2.84591 124.833 2.37951C125.03 1.91311 125.3 1.50808 125.643 1.16441C125.987 0.796197 126.392 0.513901 126.859 0.31752C127.325 0.121139 127.828 0.0229492 128.368 0.0229492C128.884 0.0229492 129.375 0.121139 129.841 0.31752C130.307 0.513901 130.713 0.796197 131.056 1.16441C131.424 1.50808 131.707 1.91311 131.903 2.37951C132.099 2.84591 132.198 3.33687 132.198 3.85236C132.198 4.39241 132.099 4.89563 131.903 5.36204C131.707 5.82844 131.424 6.23347 131.056 6.57714C130.713 6.9208 130.307 7.19083 129.841 7.38721C129.375 7.58359 128.884 7.68178 128.368 7.68178Z" fill="#C80000"/>
<path d="M101.861 27.0131C102.18 26.964 102.475 26.8535 102.745 26.6817C102.966 26.5344 103.162 26.3135 103.334 26.0189C103.531 25.7244 103.629 25.3193 103.629 24.8038V3.96298C103.629 3.47203 103.531 3.07927 103.334 2.7847C103.162 2.49013 102.966 2.2692 102.745 2.12192C102.475 1.95009 102.193 1.83962 101.898 1.79053H113.865C115.51 1.79053 116.884 2.06055 117.989 2.60059C119.094 3.11609 119.941 3.79115 120.53 4.62576C121.119 5.43583 121.438 6.31955 121.487 7.2769C121.561 8.23425 121.364 9.14251 120.898 10.0017C120.432 10.8608 119.695 11.6095 118.689 12.2478C117.707 12.8615 116.467 13.2419 114.97 13.3892C116.663 13.5365 118.075 13.9784 119.204 14.7148C120.333 15.4267 121.156 16.2981 121.671 17.3291C122.211 18.3356 122.444 19.4034 122.371 20.5326C122.322 21.6617 121.966 22.7173 121.303 23.6992C120.665 24.6565 119.72 25.4543 118.468 26.0926C117.24 26.7063 115.706 27.0131 113.865 27.0131H101.861ZM110.478 13.3156H110.809H111.214C111.95 13.3156 112.564 13.0333 113.055 12.4687C113.546 11.9041 113.914 11.2045 114.16 10.3699C114.405 9.53527 114.528 8.62701 114.528 7.64511C114.528 6.63866 114.405 5.71813 114.16 4.88351C113.914 4.0489 113.546 3.3493 113.055 2.7847C112.564 2.22011 111.95 1.93781 111.214 1.93781H110.478V13.3156ZM110.478 26.829H111.214C112.147 26.829 112.92 26.4976 113.534 25.8348C114.172 25.172 114.638 24.3497 114.933 23.3678C115.252 22.3859 115.412 21.3181 115.412 20.1643C115.412 18.9861 115.252 17.906 114.933 16.9241C114.638 15.9422 114.172 15.1198 113.534 14.457C112.92 13.7943 112.147 13.4629 111.214 13.4629H110.809H110.478V26.829Z" fill="#C80000"/>
<path d="M79.5138 18.5809L84.7056 12.4685C85.2211 11.8794 85.5402 11.3148 85.663 10.7748C85.7857 10.2102 85.8225 9.71922 85.7734 9.30192C85.6998 8.81097 85.5525 8.35684 85.3316 7.93953H90.6707C89.9588 8.35684 89.2715 8.81097 88.6087 9.30192C88.0195 9.71922 87.3936 10.2102 86.7308 10.7748C86.0926 11.3148 85.528 11.8671 85.037 12.4317L84.8161 12.6895L90.0079 24.8773C90.2043 25.3683 90.4497 25.7488 90.7443 26.0188C91.0634 26.2888 91.358 26.4975 91.628 26.6447C91.9471 26.8166 92.2663 26.927 92.5854 26.9761H82.4227C82.7418 26.927 82.9873 26.8166 83.1591 26.6447C83.3064 26.4975 83.4046 26.2888 83.4537 26.0188C83.5028 25.7242 83.4292 25.3314 83.2328 24.8405L80.3239 17.9917L79.5138 18.9123V24.8773C79.5138 25.3683 79.5997 25.7488 79.7716 26.0188C79.9679 26.2888 80.1643 26.4975 80.3607 26.6447C80.6062 26.8166 80.8885 26.927 81.2076 26.9761H71.0449C71.3395 26.927 71.6218 26.8166 71.8918 26.6447C72.1127 26.4975 72.3091 26.2888 72.481 26.0188C72.6773 25.7242 72.7755 25.3314 72.7755 24.8405V4.36786C72.7755 3.87691 72.6773 3.49643 72.481 3.2264C72.3091 2.93183 72.125 2.7109 71.9286 2.56362C71.6586 2.39179 71.3763 2.28132 71.0817 2.23223C72.4319 2.03585 73.6961 1.81492 74.8743 1.56944C75.3653 1.47125 75.8562 1.36079 76.3472 1.23805C76.8381 1.11531 77.2923 0.992577 77.7096 0.869839C78.1269 0.747102 78.4951 0.61209 78.8142 0.464805C79.1333 0.317521 79.3665 0.170235 79.5138 0.0229492V18.5809Z" fill="white"/>
<path d="M56.5527 27.1233C56.0863 27.1233 55.5217 27.0742 54.8589 26.976C54.2207 26.8533 53.5947 26.6078 52.981 26.2396C52.3919 25.8714 51.8764 25.3436 51.4346 24.6563C51.0172 23.9444 50.8086 22.987 50.8086 21.7842C50.8086 20.5323 51.0663 19.5135 51.5818 18.728C52.1219 17.9425 52.7847 17.3043 53.5702 16.8133C54.3557 16.3224 55.2026 15.9419 56.1109 15.6719C57.0437 15.3773 57.9028 15.1073 58.6883 14.8618C59.4739 14.6163 60.1244 14.3586 60.6399 14.0885C61.1799 13.794 61.4499 13.4012 61.4499 12.9103C61.4745 11.3147 61.4254 10.1118 61.3027 9.30178C61.1799 8.46716 60.7749 8.04985 60.0876 8.04985C59.6948 8.04985 59.3879 8.14804 59.167 8.34442C58.9706 8.51626 58.8234 8.76173 58.7252 9.08085C58.627 9.39997 58.5656 9.75591 58.5411 10.1487C58.5411 10.5414 58.5411 10.9465 58.5411 11.3638C58.5411 12.3457 58.271 13.1312 57.731 13.7203C57.2155 14.3095 56.4791 14.604 55.5217 14.604C55.2026 14.604 54.8589 14.5427 54.4907 14.4199C54.1471 14.2972 53.8279 14.1131 53.5334 13.8676C53.2388 13.5976 52.9933 13.2662 52.7969 12.8734C52.6251 12.4807 52.5392 12.0266 52.5392 11.5111C52.5392 10.3573 53.0547 9.43679 54.0857 8.74946C55.1167 8.03758 56.8596 7.68164 59.3143 7.68164C61.0326 7.68164 62.4564 7.85347 63.5856 8.19714C64.7393 8.5408 65.6476 9.04403 66.3104 9.70681C66.9977 10.345 67.4764 11.1428 67.7464 12.1002C68.041 13.033 68.1882 14.0885 68.1882 15.2668V22.9625C68.1882 23.5516 68.2987 23.9689 68.5196 24.2144C68.7406 24.4353 68.9615 24.5458 69.1824 24.5458C69.3542 24.5458 69.5015 24.509 69.6243 24.4353C69.747 24.3371 69.8452 24.2267 69.9188 24.1039C70.017 23.9812 70.0907 23.8339 70.1398 23.6621L70.3239 23.7725C70.1275 24.4108 69.8207 24.9754 69.4033 25.4663C69.0597 25.8836 68.5687 26.2641 67.9305 26.6078C67.3168 26.9514 66.5436 27.1233 65.6107 27.1233C64.8498 27.1233 64.1993 27.0005 63.6592 26.7551C63.1437 26.485 62.7141 26.1291 62.3705 25.6873C62.0514 25.2454 61.8182 24.7176 61.6709 24.1039C61.5236 23.4902 61.4499 22.8152 61.4499 22.0788V21.6737C61.2781 22.6311 61.0204 23.4534 60.6767 24.1408C60.333 24.8281 59.9403 25.3927 59.4984 25.8345C59.0566 26.2764 58.5779 26.6078 58.0624 26.8287C57.5469 27.0251 57.0437 27.1233 56.5527 27.1233ZM61.4499 13.9413C61.1799 14.3095 60.824 14.6163 60.3821 14.8618C59.9648 15.1073 59.5352 15.4387 59.0934 15.856C58.6761 16.2487 58.3079 16.8133 57.9887 17.5497C57.6942 18.2616 57.5469 19.2803 57.5469 20.6059C57.5469 21.3669 57.7187 22.0051 58.0624 22.5206C58.4061 23.0361 58.897 23.2939 59.5352 23.2939C59.9771 23.2939 60.4067 22.987 60.824 22.3733C61.2413 21.7351 61.4499 20.6059 61.4499 18.9858V13.9413Z" fill="white"/>
<path d="M40.7043 27.1233C39.1824 27.1233 37.8446 26.8778 36.6908 26.3869C35.5371 25.8714 34.5675 25.1718 33.7819 24.288C33.021 23.4043 32.4441 22.3733 32.0513 21.1951C31.6831 20.0168 31.499 18.7526 31.499 17.4025C31.499 16.0523 31.6831 14.7881 32.0513 13.6099C32.4441 12.4316 33.021 11.4006 33.7819 10.5169C34.5675 9.63317 35.5371 8.94584 36.6908 8.45489C37.8446 7.93939 39.1824 7.68164 40.7043 7.68164C42.349 7.68164 43.7114 7.95166 44.7915 8.49171C45.8716 9.03176 46.6939 9.70681 47.2585 10.5169C47.8231 11.3269 48.13 12.2107 48.1791 13.168C48.2527 14.1008 48.0809 14.9723 47.6636 15.7823C47.2708 16.5924 46.6448 17.2674 45.7857 17.8075C44.9511 18.3475 43.9201 18.6176 42.6927 18.6176C41.6617 18.6176 40.7903 18.5562 40.0784 18.4335C39.3665 18.3107 38.7774 18.188 38.311 18.0652C38.5564 18.8017 38.8756 19.489 39.2683 20.1272C39.6611 20.7655 40.1398 21.3301 40.7043 21.821C41.2689 22.312 41.9194 22.7047 42.6559 22.9993C43.3923 23.2693 44.2392 23.4043 45.1965 23.4043C45.8839 23.4043 46.473 23.343 46.964 23.2202C47.4549 23.0729 47.8722 22.9134 48.2159 22.7415C48.6086 22.5452 48.9278 22.3242 49.1732 22.0788L49.3205 22.3365C48.5596 23.2448 47.7249 24.0426 46.8167 24.7299C46.0312 25.3436 45.1106 25.8959 44.0551 26.3869C43.0241 26.8778 41.9072 27.1233 40.7043 27.1233ZM40.7043 8.04985C40.0907 8.04985 39.5629 8.34442 39.121 8.93356C38.6792 9.52271 38.3355 10.2837 38.09 11.2165C37.8446 12.1247 37.7218 13.1557 37.7218 14.3095C37.7464 15.4387 37.9059 16.5433 38.2005 17.6234C38.8387 17.7952 39.4524 17.8198 40.0416 17.697C40.6307 17.5497 41.1462 17.2552 41.5881 16.8133C42.0545 16.3715 42.4227 15.7701 42.6927 15.0091C42.9627 14.2481 43.0977 13.3153 43.0977 12.2107C43.0977 11.7443 43.0486 11.2656 42.9504 10.7746C42.8523 10.2591 42.6927 9.805 42.4718 9.41224C42.2754 9.01948 42.0299 8.70036 41.7353 8.45489C41.4408 8.18487 41.0971 8.04985 40.7043 8.04985Z" fill="white"/>
<path d="M27.7292 7.93972H30.3804V8.23429H27.7292L27.6924 22.1896C27.6924 22.9014 27.7783 23.4783 27.9502 23.9202C28.1465 24.3375 28.4288 24.5461 28.797 24.5461C29.0916 24.5461 29.3248 24.4357 29.4966 24.2147C29.5948 24.1165 29.6685 24.0061 29.7176 23.8833L30.0121 24.0674C29.7421 24.6566 29.3862 25.1721 28.9443 25.6139C28.5761 26.0067 28.0852 26.3626 27.4715 26.6818C26.8578 26.9763 26.1214 27.1236 25.2622 27.1236C24.5258 27.1236 23.8875 26.9641 23.3475 26.6449C22.8074 26.3013 22.3533 25.8717 21.9851 25.3562C21.6414 24.8161 21.3837 24.2025 21.2119 23.5151C21.04 22.8278 20.9541 22.1159 20.9541 21.3795V8.23429H20.9173H18.708V7.93972H19.2603C20.5859 7.93972 21.7642 7.64515 22.7952 7.05601C23.8507 6.46687 24.7467 5.81636 25.4831 5.10448C26.3423 4.26987 27.091 3.31251 27.7292 2.23242V7.93972Z" fill="white"/>
<path d="M18.337 19.5752C18.337 20.8763 18.0793 22.0054 17.5638 22.9628C17.0728 23.8956 16.3732 24.6811 15.4649 25.3194C14.5567 25.933 13.4766 26.3994 12.2247 26.7186C10.9727 27.0131 9.61036 27.1604 8.1375 27.1604C6.81194 27.1604 5.64593 27.05 4.63948 26.829C3.63303 26.5836 2.78614 26.3135 2.09881 26.019C1.28875 25.6753 0.589141 25.2825 0 24.8407V17.0714H0.147285C0.417308 18.8634 0.895985 20.4467 1.58332 21.8213C1.87789 22.4105 2.23382 22.9873 2.65113 23.5519C3.06844 24.1165 3.54712 24.6197 4.08716 25.0616C4.65176 25.5035 5.28999 25.8594 6.00187 26.1294C6.7383 26.3994 7.56064 26.5345 8.4689 26.5345C9.79446 26.5345 10.8009 26.1171 11.4882 25.2825C12.2001 24.4234 12.5561 23.3801 12.5561 22.1527C12.5561 20.8517 12.2492 19.8207 11.6355 19.0597C11.0218 18.2742 10.2486 17.6114 9.31579 17.0714C8.40753 16.5313 7.41335 16.0527 6.33326 15.6354C5.25317 15.1935 4.24672 14.678 3.31392 14.0889C2.40566 13.4997 1.64468 12.7756 1.031 11.9164C0.417308 11.0327 0.110464 9.86669 0.110464 8.41838C0.110464 7.2892 0.343665 6.3073 0.810068 5.47268C1.27647 4.61352 1.91471 3.90164 2.72478 3.33705C3.55939 2.77245 4.55357 2.34287 5.7073 2.0483C6.88558 1.75373 8.17433 1.60645 9.57353 1.60645C10.6782 1.60645 11.6355 1.64327 12.4456 1.71691C13.2802 1.79055 13.9675 1.85192 14.5076 1.90101C15.0722 1.95011 15.4895 1.96238 15.7595 1.93784C16.0295 1.91329 16.1645 1.80282 16.1645 1.60645H16.4223V10.2963H16.2382C15.9927 8.74977 15.5877 7.36284 15.0231 6.13546C14.7776 5.61997 14.483 5.11674 14.1394 4.62579C13.8203 4.11029 13.4398 3.65616 12.9979 3.2634C12.5561 2.87064 12.0406 2.55152 11.4514 2.30605C10.8868 2.06057 10.2609 1.93784 9.57353 1.93784C8.86166 1.93784 8.26024 2.0483 7.76929 2.26923C7.27834 2.49016 6.88558 2.77245 6.59101 3.11612C6.29644 3.45978 6.08779 3.86482 5.96505 4.33122C5.84231 4.79762 5.78094 5.26403 5.78094 5.73043C5.78094 6.81052 6.08779 7.68196 6.70147 8.34474C7.33971 9.00752 8.11296 9.59666 9.02122 10.1122C9.95402 10.6277 10.9605 11.1309 12.0406 11.6218C13.1452 12.0882 14.1516 12.6528 15.0599 13.3156C15.9927 13.9784 16.766 14.813 17.3796 15.8195C18.0179 16.8014 18.337 18.0533 18.337 19.5752Z" fill="white"/>
</svg>
